<?xml version="1.0" encoding="UTF-8" standalone="no"?><!DOCTYPE svg PUBLIC "-//W3C//DTD SVG 1.1//EN" "http://www.w3.org/Graphics/SVG/1.1/DTD/svg11.dtd"><!-- Generated by graphviz version 2.40.1 (20161225.0304)
 --><!-- Title: G Pages: 1 --><svg xmlns="http://www.w3.org/2000/svg" xmlns:xlink="http://www.w3.org/1999/xlink" width="653pt" height="1056pt" viewBox="0.00 0.00 653.21 1056.20">
<g id="graph0" class="graph" transform="scale(1 1) rotate(0) translate(4 1052.2)">
<title>G</title>
<polygon fill="#ffffff" stroke="transparent" points="-4,4 -4,-1052.2 649.2075,-1052.2 649.2075,4 -4,4"/>
<!-- start -->
<g id="node1" class="node">
<title>start</title>
<path fill="none" stroke="#000000" d="M165.3395,-1048.2C165.3395,-1048.2 135.3395,-1048.2 135.3395,-1048.2 129.3395,-1048.2 123.3395,-1042.2 123.3395,-1036.2 123.3395,-1036.2 123.3395,-1024.2 123.3395,-1024.2 123.3395,-1018.2 129.3395,-1012.2 135.3395,-1012.2 135.3395,-1012.2 165.3395,-1012.2 165.3395,-1012.2 171.3395,-1012.2 177.3395,-1018.2 177.3395,-1024.2 177.3395,-1024.2 177.3395,-1036.2 177.3395,-1036.2 177.3395,-1042.2 171.3395,-1048.2 165.3395,-1048.2"/>
<text text-anchor="middle" x="150.3395" y="-1027.2" font-family="Helvetica,sans-Serif" font-size="10.00" fill="#000000">Start</text>
</g>
<!-- init_app -->
<g id="node2" class="node">
<title>init_app</title>
<path fill="none" stroke="#000000" d="M229.5238,-975.2C229.5238,-975.2 71.1552,-975.2 71.1552,-975.2 65.1552,-975.2 59.1552,-969.2 59.1552,-963.2 59.1552,-963.2 59.1552,-951.2 59.1552,-951.2 59.1552,-945.2 65.1552,-939.2 71.1552,-939.2 71.1552,-939.2 229.5238,-939.2 229.5238,-939.2 235.5238,-939.2 241.5238,-945.2 241.5238,-951.2 241.5238,-951.2 241.5238,-963.2 241.5238,-963.2 241.5238,-969.2 235.5238,-975.2 229.5238,-975.2"/>
<text text-anchor="middle" x="150.3395" y="-954.2" font-family="Helvetica,sans-Serif" font-size="10.00" fill="#000000">Initialize GestureControllerApplication</text>
</g>
<!-- start&#45;&gt;init_app -->
<g id="edge1" class="edge">
<title>start-&gt;init_app</title>
<path fill="none" stroke="#000000" d="M150.3395,-1012.1551C150.3395,-1004.0828 150.3395,-994.3764 150.3395,-985.3817"/>
<polygon fill="#000000" stroke="#000000" points="153.8396,-985.2903 150.3395,-975.2904 146.8396,-985.2904 153.8396,-985.2903"/>
</g>
<!-- set_mouse_pos -->
<g id="node3" class="node">
<title>set_mouse_pos</title>
<path fill="none" stroke="#000000" d="M189.4736,-902.2C189.4736,-902.2 111.2054,-902.2 111.2054,-902.2 105.2054,-902.2 99.2054,-896.2 99.2054,-890.2 99.2054,-890.2 99.2054,-878.2 99.2054,-878.2 99.2054,-872.2 105.2054,-866.2 111.2054,-866.2 111.2054,-866.2 189.4736,-866.2 189.4736,-866.2 195.4736,-866.2 201.4736,-872.2 201.4736,-878.2 201.4736,-878.2 201.4736,-890.2 201.4736,-890.2 201.4736,-896.2 195.4736,-902.2 189.4736,-902.2"/>
<text text-anchor="middle" x="150.3395" y="-881.2" font-family="Helvetica,sans-Serif" font-size="10.00" fill="#000000">Set Mouse Position</text>
</g>
<!-- init_app&#45;&gt;set_mouse_pos -->
<g id="edge2" class="edge">
<title>init_app-&gt;set_mouse_pos</title>
<path fill="none" stroke="#000000" d="M150.3395,-939.1551C150.3395,-931.0828 150.3395,-921.3764 150.3395,-912.3817"/>
<polygon fill="#000000" stroke="#000000" points="153.8396,-912.2903 150.3395,-902.2904 146.8396,-912.2904 153.8396,-912.2903"/>
</g>
<!-- calibrated_true -->
<g id="node4" class="node">
<title>calibrated_true</title>
<path fill="none" stroke="#000000" d="M195.1377,-829.2C195.1377,-829.2 105.5413,-829.2 105.5413,-829.2 99.5413,-829.2 93.5413,-823.2 93.5413,-817.2 93.5413,-817.2 93.5413,-805.2 93.5413,-805.2 93.5413,-799.2 99.5413,-793.2 105.5413,-793.2 105.5413,-793.2 195.1377,-793.2 195.1377,-793.2 201.1377,-793.2 207.1377,-799.2 207.1377,-805.2 207.1377,-805.2 207.1377,-817.2 207.1377,-817.2 207.1377,-823.2 201.1377,-829.2 195.1377,-829.2"/>
<text text-anchor="middle" x="150.3395" y="-808.2" font-family="Helvetica,sans-Serif" font-size="10.00" fill="#000000">Set Calibrated to True</text>
</g>
<!-- set_mouse_pos&#45;&gt;calibrated_true -->
<g id="edge3" class="edge">
<title>set_mouse_pos-&gt;calibrated_true</title>
<path fill="none" stroke="#000000" d="M150.3395,-866.1551C150.3395,-858.0828 150.3395,-848.3764 150.3395,-839.3817"/>
<polygon fill="#000000" stroke="#000000" points="153.8396,-839.2903 150.3395,-829.2904 146.8396,-839.2904 153.8396,-839.2903"/>
</g>
<!-- create_window -->
<g id="node5" class="node">
<title>create_window</title>
<path fill="none" stroke="#000000" d="M201.3003,-756.2C201.3003,-756.2 99.3787,-756.2 99.3787,-756.2 93.3787,-756.2 87.3787,-750.2 87.3787,-744.2 87.3787,-744.2 87.3787,-732.2 87.3787,-732.2 87.3787,-726.2 93.3787,-720.2 99.3787,-720.2 99.3787,-720.2 201.3003,-720.2 201.3003,-720.2 207.3003,-720.2 213.3003,-726.2 213.3003,-732.2 213.3003,-732.2 213.3003,-744.2 213.3003,-744.2 213.3003,-750.2 207.3003,-756.2 201.3003,-756.2"/>
<text text-anchor="middle" x="150.3395" y="-735.2" font-family="Helvetica,sans-Serif" font-size="10.00" fill="#000000">Create OpenCV Window</text>
</g>
<!-- calibrated_true&#45;&gt;create_window -->
<g id="edge4" class="edge">
<title>calibrated_true-&gt;create_window</title>
<path fill="none" stroke="#000000" d="M150.3395,-793.1551C150.3395,-785.0828 150.3395,-775.3764 150.3395,-766.3817"/>
<polygon fill="#000000" stroke="#000000" points="153.8396,-766.2903 150.3395,-756.2904 146.8396,-766.2904 153.8396,-766.2903"/>
</g>
<!-- capture_video -->
<g id="node6" class="node">
<title>capture_video</title>
<path fill="none" stroke="#000000" d="M210.6849,-683.2C210.6849,-683.2 89.9941,-683.2 89.9941,-683.2 83.9941,-683.2 77.9941,-677.2 77.9941,-671.2 77.9941,-671.2 77.9941,-659.2 77.9941,-659.2 77.9941,-653.2 83.9941,-647.2 89.9941,-647.2 89.9941,-647.2 210.6849,-647.2 210.6849,-647.2 216.6849,-647.2 222.6849,-653.2 222.6849,-659.2 222.6849,-659.2 222.6849,-671.2 222.6849,-671.2 222.6849,-677.2 216.6849,-683.2 210.6849,-683.2"/>
<text text-anchor="middle" x="150.3395" y="-662.2" font-family="Helvetica,sans-Serif" font-size="10.00" fill="#000000">Capture Video From Camera</text>
</g>
<!-- create_window&#45;&gt;capture_video -->
<g id="edge5" class="edge">
<title>create_window-&gt;capture_video</title>
<path fill="none" stroke="#000000" d="M150.3395,-720.1551C150.3395,-712.0828 150.3395,-702.3764 150.3395,-693.3817"/>
<polygon fill="#000000" stroke="#000000" points="153.8396,-693.2903 150.3395,-683.2904 146.8396,-693.2904 153.8396,-693.2903"/>
</g>
<!-- loop_check -->
<g id="node7" class="node">
<title>loop_check</title>
<path fill="none" stroke="#000000" d="M222.6107,-610.2C222.6107,-610.2 78.0683,-610.2 78.0683,-610.2 72.0683,-610.2 66.0683,-604.2 66.0683,-598.2 66.0683,-598.2 66.0683,-586.2 66.0683,-586.2 66.0683,-580.2 72.0683,-574.2 78.0683,-574.2 78.0683,-574.2 222.6107,-574.2 222.6107,-574.2 228.6107,-574.2 234.6107,-580.2 234.6107,-586.2 234.6107,-586.2 234.6107,-598.2 234.6107,-598.2 234.6107,-604.2 228.6107,-610.2 222.6107,-610.2"/>
<text text-anchor="middle" x="150.3395" y="-589.2" font-family="Helvetica,sans-Serif" font-size="10.00" fill="#000000">Check If Video Capture Is Opened</text>
</g>
<!-- capture_video&#45;&gt;loop_check -->
<g id="edge6" class="edge">
<title>capture_video-&gt;loop_check</title>
<path fill="none" stroke="#000000" d="M150.3395,-647.1551C150.3395,-639.0828 150.3395,-629.3764 150.3395,-620.3817"/>
<polygon fill="#000000" stroke="#000000" points="153.8396,-620.2903 150.3395,-610.2904 146.8396,-620.2904 153.8396,-620.2903"/>
</g>
<!-- read_frame -->
<g id="node8" class="node">
<title>read_frame</title>
<path fill="none" stroke="#000000" d="M110.5189,-521.4C110.5189,-521.4 12.1601,-521.4 12.1601,-521.4 6.1601,-521.4 .1601,-515.4 .1601,-509.4 .1601,-509.4 .1601,-497.4 .1601,-497.4 .1601,-491.4 6.1601,-485.4 12.1601,-485.4 12.1601,-485.4 110.5189,-485.4 110.5189,-485.4 116.5189,-485.4 122.5189,-491.4 122.5189,-497.4 122.5189,-497.4 122.5189,-509.4 122.5189,-509.4 122.5189,-515.4 116.5189,-521.4 110.5189,-521.4"/>
<text text-anchor="middle" x="61.3395" y="-500.4" font-family="Helvetica,sans-Serif" font-size="10.00" fill="#000000">Read Frame from Video</text>
</g>
<!-- loop_check&#45;&gt;read_frame -->
<g id="edge7" class="edge">
<title>loop_check-&gt;read_frame</title>
<path fill="none" stroke="#000000" d="M131.8986,-573.8006C118.8047,-560.736 101.0629,-543.0342 86.646,-528.6497"/>
<polygon fill="#000000" stroke="#000000" points="89.0034,-526.0575 79.4522,-521.472 84.0592,-531.0128 89.0034,-526.0575"/>
<text text-anchor="middle" x="123.6691" y="-543.6" font-family="Times,serif" font-size="14.00" fill="#000000">yes</text>
</g>
<!-- stop -->
<g id="node20" class="node">
<title>stop</title>
<path fill="none" stroke="#000000" d="M233.3395,-182C233.3395,-182 203.3395,-182 203.3395,-182 197.3395,-182 191.3395,-176 191.3395,-170 191.3395,-170 191.3395,-158 191.3395,-158 191.3395,-152 197.3395,-146 203.3395,-146 203.3395,-146 233.3395,-146 233.3395,-146 239.3395,-146 245.3395,-152 245.3395,-158 245.3395,-158 245.3395,-170 245.3395,-170 245.3395,-176 239.3395,-182 233.3395,-182"/>
<text text-anchor="middle" x="218.3395" y="-161" font-family="Helvetica,sans-Serif" font-size="10.00" fill="#000000">Stop</text>
</g>
<!-- loop_check&#45;&gt;stop -->
<g id="edge23" class="edge">
<title>loop_check-&gt;stop</title>
<path fill="none" stroke="#000000" d="M150.3395,-574.1721C150.3395,-556.2311 150.3395,-527.9125 150.3395,-503.4 150.3395,-503.4 150.3395,-503.4 150.3395,-237 150.3395,-215.6135 166.1592,-197.8748 182.5379,-185.2405"/>
<polygon fill="#000000" stroke="#000000" points="184.9952,-187.7846 191.0731,-179.1065 180.91,-182.1003 184.9952,-187.7846"/>
<text text-anchor="middle" x="157.3395" y="-366" font-family="Times,serif" font-size="14.00" fill="#000000">no</text>
</g>
<!-- process_frame -->
<g id="node9" class="node">
<title>process_frame</title>
<path fill="none" stroke="#000000" d="M91.1198,-432.6C91.1198,-432.6 31.5592,-432.6 31.5592,-432.6 25.5592,-432.6 19.5592,-426.6 19.5592,-420.6 19.5592,-420.6 19.5592,-408.6 19.5592,-408.6 19.5592,-402.6 25.5592,-396.6 31.5592,-396.6 31.5592,-396.6 91.1198,-396.6 91.1198,-396.6 97.1198,-396.6 103.1198,-402.6 103.1198,-408.6 103.1198,-408.6 103.1198,-420.6 103.1198,-420.6 103.1198,-426.6 97.1198,-432.6 91.1198,-432.6"/>
<text text-anchor="middle" x="61.3395" y="-411.6" font-family="Helvetica,sans-Serif" font-size="10.00" fill="#000000">Process Frame</text>
</g>
<!-- read_frame&#45;&gt;process_frame -->
<g id="edge8" class="edge">
<title>read_frame-&gt;process_frame</title>
<path fill="none" stroke="#000000" d="M61.3395,-485.0006C61.3395,-472.8949 61.3395,-456.8076 61.3395,-443.0674"/>
<polygon fill="#000000" stroke="#000000" points="64.8396,-442.672 61.3395,-432.672 57.8396,-442.6721 64.8396,-442.672"/>
</g>
<!-- flip_frame -->
<g id="node10" class="node">
<title>flip_frame</title>
<path fill="none" stroke="#000000" d="M81.1099,-343.8C81.1099,-343.8 41.5691,-343.8 41.5691,-343.8 35.5691,-343.8 29.5691,-337.8 29.5691,-331.8 29.5691,-331.8 29.5691,-319.8 29.5691,-319.8 29.5691,-313.8 35.5691,-307.8 41.5691,-307.8 41.5691,-307.8 81.1099,-307.8 81.1099,-307.8 87.1099,-307.8 93.1099,-313.8 93.1099,-319.8 93.1099,-319.8 93.1099,-331.8 93.1099,-331.8 93.1099,-337.8 87.1099,-343.8 81.1099,-343.8"/>
<text text-anchor="middle" x="61.3395" y="-322.8" font-family="Helvetica,sans-Serif" font-size="10.00" fill="#000000">Flip Frame</text>
</g>
<!-- process_frame&#45;&gt;flip_frame -->
<g id="edge9" class="edge">
<title>process_frame-&gt;flip_frame</title>
<path fill="none" stroke="#000000" d="M61.3395,-396.2006C61.3395,-384.0949 61.3395,-368.0076 61.3395,-354.2674"/>
<polygon fill="#000000" stroke="#000000" points="64.8396,-353.872 61.3395,-343.872 57.8396,-353.8721 64.8396,-353.872"/>
</g>
<!-- convert_frame -->
<g id="node11" class="node">
<title>convert_frame</title>
<path fill="none" stroke="#000000" d="M109.5707,-255C109.5707,-255 15.1083,-255 15.1083,-255 9.1083,-255 3.1083,-249 3.1083,-243 3.1083,-243 3.1083,-231 3.1083,-231 3.1083,-225 9.1083,-219 15.1083,-219 15.1083,-219 109.5707,-219 109.5707,-219 115.5707,-219 121.5707,-225 121.5707,-231 121.5707,-231 121.5707,-243 121.5707,-243 121.5707,-249 115.5707,-255 109.5707,-255"/>
<text text-anchor="middle" x="62.3395" y="-234" font-family="Helvetica,sans-Serif" font-size="10.00" fill="#000000">Convert Frame to RGB</text>
</g>
<!-- flip_frame&#45;&gt;convert_frame -->
<g id="edge10" class="edge">
<title>flip_frame-&gt;convert_frame</title>
<path fill="none" stroke="#000000" d="M61.5467,-307.4006C61.683,-295.2949 61.8642,-279.2076 62.0189,-265.4674"/>
<polygon fill="#000000" stroke="#000000" points="65.5231,-265.1108 62.136,-255.072 58.5235,-265.0319 65.5231,-265.1108"/>
</g>
<!-- get_face_mesh -->
<g id="node12" class="node">
<title>get_face_mesh</title>
<path fill="none" stroke="#000000" d="M131.8034,-182C131.8034,-182 34.8756,-182 34.8756,-182 28.8756,-182 22.8756,-176 22.8756,-170 22.8756,-170 22.8756,-158 22.8756,-158 22.8756,-152 28.8756,-146 34.8756,-146 34.8756,-146 131.8034,-146 131.8034,-146 137.8034,-146 143.8034,-152 143.8034,-158 143.8034,-158 143.8034,-170 143.8034,-170 143.8034,-176 137.8034,-182 131.8034,-182"/>
<text text-anchor="middle" x="83.3395" y="-161" font-family="Helvetica,sans-Serif" font-size="10.00" fill="#000000">Get Face Mesh Results</text>
</g>
<!-- convert_frame&#45;&gt;get_face_mesh -->
<g id="edge11" class="edge">
<title>convert_frame-&gt;get_face_mesh</title>
<path fill="none" stroke="#000000" d="M67.5305,-218.9551C69.8779,-210.7951 72.7057,-200.9652 75.3167,-191.8887"/>
<polygon fill="#000000" stroke="#000000" points="78.7343,-192.6683 78.1354,-182.0904 72.0072,-190.733 78.7343,-192.6683"/>
</g>
<!-- get_hand_landmarks -->
<g id="node13" class="node">
<title>get_hand_landmarks</title>
<path fill="none" stroke="#000000" d="M213.8635,-109C213.8635,-109 126.8155,-109 126.8155,-109 120.8155,-109 114.8155,-103 114.8155,-97 114.8155,-97 114.8155,-85 114.8155,-85 114.8155,-79 120.8155,-73 126.8155,-73 126.8155,-73 213.8635,-73 213.8635,-73 219.8635,-73 225.8635,-79 225.8635,-85 225.8635,-85 225.8635,-97 225.8635,-97 225.8635,-103 219.8635,-109 213.8635,-109"/>
<text text-anchor="middle" x="170.3395" y="-88" font-family="Helvetica,sans-Serif" font-size="10.00" fill="#000000">Get Hand Landmarks</text>
</g>
<!-- get_face_mesh&#45;&gt;get_hand_landmarks -->
<g id="edge12" class="edge">
<title>get_face_mesh-&gt;get_hand_landmarks</title>
<path fill="none" stroke="#000000" d="M104.8451,-145.9551C115.7203,-136.8299 129.0843,-125.6165 140.8982,-115.7036"/>
<polygon fill="#000000" stroke="#000000" points="143.369,-118.1994 148.7798,-109.0904 138.8695,-112.837 143.369,-118.1994"/>
</g>
<!-- annotate_image -->
<g id="node14" class="node">
<title>annotate_image</title>
<path fill="none" stroke="#000000" d="M633.0756,-36C633.0756,-36 399.6034,-36 399.6034,-36 393.6034,-36 387.6034,-30 387.6034,-24 387.6034,-24 387.6034,-12 387.6034,-12 387.6034,-6 393.6034,0 399.6034,0 399.6034,0 633.0756,0 633.0756,0 639.0756,0 645.0756,-6 645.0756,-12 645.0756,-12 645.0756,-24 645.0756,-24 645.0756,-30 639.0756,-36 633.0756,-36"/>
<text text-anchor="middle" x="516.3395" y="-15" font-family="Helvetica,sans-Serif" font-size="10.00" fill="#000000">Annotate Image with Face Mesh and Hand Landmarks</text>
</g>
<!-- get_hand_landmarks&#45;&gt;annotate_image -->
<g id="edge13" class="edge">
<title>get_hand_landmarks-&gt;annotate_image</title>
<path fill="none" stroke="#000000" d="M225.9304,-79.2713C278.4246,-68.1959 358.2263,-51.3591 420.9011,-38.1358"/>
<polygon fill="#000000" stroke="#000000" points="421.7441,-41.5351 430.8062,-36.046 420.299,-34.6859 421.7441,-41.5351"/>
</g>
<!-- mouse_click_check -->
<g id="node15" class="node">
<title>mouse_click_check</title>
<path fill="none" stroke="#000000" d="M453.6869,-610.2C453.6869,-610.2 322.9921,-610.2 322.9921,-610.2 316.9921,-610.2 310.9921,-604.2 310.9921,-598.2 310.9921,-598.2 310.9921,-586.2 310.9921,-586.2 310.9921,-580.2 316.9921,-574.2 322.9921,-574.2 322.9921,-574.2 453.6869,-574.2 453.6869,-574.2 459.6869,-574.2 465.6869,-580.2 465.6869,-586.2 465.6869,-586.2 465.6869,-598.2 465.6869,-598.2 465.6869,-604.2 459.6869,-610.2 453.6869,-610.2"/>
<text text-anchor="middle" x="388.3395" y="-589.2" font-family="Helvetica,sans-Serif" font-size="10.00" fill="#000000">Check for Mouse Click Gesture</text>
</g>
<!-- annotate_image&#45;&gt;mouse_click_check -->
<g id="edge14" class="edge">
<title>annotate_image-&gt;mouse_click_check</title>
<path fill="none" stroke="#000000" d="M519.0659,-36.2539C521.0314,-50.9924 523.3395,-72.2843 523.3395,-91 523.3395,-503.4 523.3395,-503.4 523.3395,-503.4 523.3395,-535.4334 496.4804,-556.5574 466.723,-570.131"/>
<polygon fill="#000000" stroke="#000000" points="465.2423,-566.9575 457.4214,-574.1048 467.9924,-573.3947 465.2423,-566.9575"/>
</g>
<!-- scroll_check -->
<g id="node16" class="node">
<title>scroll_check</title>
<path fill="none" stroke="#000000" d="M340.7395,-521.4C340.7395,-521.4 239.9395,-521.4 239.9395,-521.4 233.9395,-521.4 227.9395,-515.4 227.9395,-509.4 227.9395,-509.4 227.9395,-497.4 227.9395,-497.4 227.9395,-491.4 233.9395,-485.4 239.9395,-485.4 239.9395,-485.4 340.7395,-485.4 340.7395,-485.4 346.7395,-485.4 352.7395,-491.4 352.7395,-497.4 352.7395,-497.4 352.7395,-509.4 352.7395,-509.4 352.7395,-515.4 346.7395,-521.4 340.7395,-521.4"/>
<text text-anchor="middle" x="290.3395" y="-500.4" font-family="Helvetica,sans-Serif" font-size="10.00" fill="#000000">Check for Scroll Gesture</text>
</g>
<!-- mouse_click_check&#45;&gt;scroll_check -->
<g id="edge15" class="edge">
<title>mouse_click_check-&gt;scroll_check</title>
<path fill="none" stroke="#000000" d="M368.0338,-573.8006C353.4835,-560.6162 333.721,-542.709 317.7691,-528.2546"/>
<polygon fill="#000000" stroke="#000000" points="320.0444,-525.5931 310.2838,-521.472 315.3441,-530.7804 320.0444,-525.5931"/>
<text text-anchor="middle" x="354.3395" y="-543.6" font-family="Times,serif" font-size="14.00" fill="#000000">no</text>
</g>
<!-- display_frame -->
<g id="node17" class="node">
<title>display_frame</title>
<path fill="none" stroke="#000000" d="M362.7797,-432.6C362.7797,-432.6 305.8993,-432.6 305.8993,-432.6 299.8993,-432.6 293.8993,-426.6 293.8993,-420.6 293.8993,-420.6 293.8993,-408.6 293.8993,-408.6 293.8993,-402.6 299.8993,-396.6 305.8993,-396.6 305.8993,-396.6 362.7797,-396.6 362.7797,-396.6 368.7797,-396.6 374.7797,-402.6 374.7797,-408.6 374.7797,-408.6 374.7797,-420.6 374.7797,-420.6 374.7797,-426.6 368.7797,-432.6 362.7797,-432.6"/>
<text text-anchor="middle" x="334.3395" y="-411.6" font-family="Helvetica,sans-Serif" font-size="10.00" fill="#000000">Display Frame</text>
</g>
<!-- mouse_click_check&#45;&gt;display_frame -->
<g id="edge16" class="edge">
<title>mouse_click_check-&gt;display_frame</title>
<path fill="none" stroke="#000000" d="M386.716,-574.1117C383.7596,-546.539 376.0816,-492.7532 358.3395,-450.6 357.0573,-447.5537 355.5069,-444.4912 353.8184,-441.5079"/>
<polygon fill="#000000" stroke="#000000" points="356.7168,-439.5407 348.4683,-432.8914 350.7699,-443.2332 356.7168,-439.5407"/>
<text text-anchor="middle" x="431.9784" y="-499.2" font-family="Times,serif" font-size="14.00" fill="#000000">yes (perform click)</text>
</g>
<!-- scroll_check&#45;&gt;display_frame -->
<g id="edge17" class="edge">
<title>scroll_check-&gt;display_frame</title>
<path fill="none" stroke="#000000" d="M322.723,-485.0265C328.6249,-480.1054 333.9725,-474.2201 337.3395,-467.4 341.0546,-459.8747 341.7343,-450.9919 341.0725,-442.6803"/>
<polygon fill="#000000" stroke="#000000" points="344.513,-442.0131 339.6443,-432.6032 337.5822,-442.9954 344.513,-442.0131"/>
<text text-anchor="middle" x="347.3395" y="-454.8" font-family="Times,serif" font-size="14.00" fill="#000000">no</text>
</g>
<!-- scroll_check&#45;&gt;display_frame -->
<g id="edge18" class="edge">
<title>scroll_check-&gt;display_frame</title>
<path fill="none" stroke="#000000" d="M240.9611,-485.1742C224.3175,-476.1563 212.2037,-464.2672 222.1711,-450.6 229.8917,-440.0136 257.9833,-431.006 284.1199,-424.6488"/>
<polygon fill="#000000" stroke="#000000" points="285.0519,-428.0254 293.9948,-422.3444 283.461,-421.2086 285.0519,-428.0254"/>
<text text-anchor="middle" x="277.9237" y="-454.8" font-family="Times,serif" font-size="14.00" fill="#000000">yes (perform scroll)</text>
</g>
<!-- key_press -->
<g id="node18" class="node">
<title>key_press</title>
<path fill="none" stroke="#000000" d="M358.0517,-343.8C358.0517,-343.8 258.6273,-343.8 258.6273,-343.8 252.6273,-343.8 246.6273,-337.8 246.6273,-331.8 246.6273,-331.8 246.6273,-319.8 246.6273,-319.8 246.6273,-313.8 252.6273,-307.8 258.6273,-307.8 258.6273,-307.8 358.0517,-307.8 358.0517,-307.8 364.0517,-307.8 370.0517,-313.8 370.0517,-319.8 370.0517,-319.8 370.0517,-331.8 370.0517,-331.8 370.0517,-337.8 364.0517,-343.8 358.0517,-343.8"/>
<text text-anchor="middle" x="308.3395" y="-322.8" font-family="Helvetica,sans-Serif" font-size="10.00" fill="#000000">Check For 'q' Key Press</text>
</g>
<!-- display_frame&#45;&gt;key_press -->
<g id="edge19" class="edge">
<title>display_frame-&gt;key_press</title>
<path fill="none" stroke="#000000" d="M328.9523,-396.2006C325.3727,-383.975 320.6042,-367.6887 316.5552,-353.8599"/>
<polygon fill="#000000" stroke="#000000" points="319.7999,-352.4856 313.6309,-343.872 313.0819,-354.4526 319.7999,-352.4856"/>
</g>
<!-- key_press&#45;&gt;loop_check -->
<g id="edge20" class="edge">
<title>key_press-&gt;loop_check</title>
<path fill="none" stroke="#000000" d="M288.8448,-343.9549C265.2652,-366.8384 225.711,-408.3177 201.3395,-450.6 176.5048,-493.6859 181.5766,-509.5519 164.3395,-556.2 163.3371,-558.9127 162.2752,-561.733 161.2022,-564.5478"/>
<polygon fill="#000000" stroke="#000000" points="157.916,-563.3419 157.582,-573.9315 164.4468,-565.8615 157.916,-563.3419"/>
<text text-anchor="middle" x="208.3395" y="-454.8" font-family="Times,serif" font-size="14.00" fill="#000000">no</text>
</g>
<!-- release_resources -->
<g id="node19" class="node">
<title>release_resources</title>
<path fill="none" stroke="#000000" d="M426.836,-255C426.836,-255 189.843,-255 189.843,-255 183.843,-255 177.843,-249 177.843,-243 177.843,-243 177.843,-231 177.843,-231 177.843,-225 183.843,-219 189.843,-219 189.843,-219 426.836,-219 426.836,-219 432.836,-219 438.836,-225 438.836,-231 438.836,-231 438.836,-243 438.836,-243 438.836,-249 432.836,-255 426.836,-255"/>
<text text-anchor="middle" x="308.3395" y="-234" font-family="Helvetica,sans-Serif" font-size="10.00" fill="#000000">Release Video Capture and Destroy OpenCV Windows</text>
</g>
<!-- key_press&#45;&gt;release_resources -->
<g id="edge21" class="edge">
<title>key_press-&gt;release_resources</title>
<path fill="none" stroke="#000000" d="M308.3395,-307.4006C308.3395,-295.2949 308.3395,-279.2076 308.3395,-265.4674"/>
<polygon fill="#000000" stroke="#000000" points="311.8396,-265.072 308.3395,-255.072 304.8396,-265.0721 311.8396,-265.072"/>
<text text-anchor="middle" x="317.6691" y="-277.2" font-family="Times,serif" font-size="14.00" fill="#000000">yes</text>
</g>
<!-- release_resources&#45;&gt;stop -->
<g id="edge22" class="edge">
<title>release_resources-&gt;stop</title>
<path fill="none" stroke="#000000" d="M286.0923,-218.9551C274.734,-209.7422 260.7512,-198.4006 248.4439,-188.418"/>
<polygon fill="#000000" stroke="#000000" points="250.6139,-185.6716 240.6427,-182.0904 246.2043,-191.1081 250.6139,-185.6716"/>
</g>
</g>
</svg>