<?xml version="1.0" encoding="UTF-8" standalone="no"?><!DOCTYPE svg PUBLIC "-//W3C//DTD SVG 1.1//EN" "http://www.w3.org/Graphics/SVG/1.1/DTD/svg11.dtd"><!-- Generated by graphviz version 2.40.1 (20161225.0304)
 --><!-- Title: G Pages: 1 --><svg xmlns="http://www.w3.org/2000/svg" xmlns:xlink="http://www.w3.org/1999/xlink" width="449pt" height="548pt" viewBox="0.00 0.00 448.75 548.00">
<g id="graph0" class="graph" transform="scale(1 1) rotate(0) translate(4 544)">
<title>G</title>
<polygon fill="#ffffff" stroke="transparent" points="-4,4 -4,-544 444.7465,-544 444.7465,4 -4,4"/>
<!-- start -->
<g id="node1" class="node">
<title>start</title>
<path fill="none" stroke="#000000" d="M211.6855,-540C211.6855,-540 181.6855,-540 181.6855,-540 175.6855,-540 169.6855,-534 169.6855,-528 169.6855,-528 169.6855,-516 169.6855,-516 169.6855,-510 175.6855,-504 181.6855,-504 181.6855,-504 211.6855,-504 211.6855,-504 217.6855,-504 223.6855,-510 223.6855,-516 223.6855,-516 223.6855,-528 223.6855,-528 223.6855,-534 217.6855,-540 211.6855,-540"/>
<text text-anchor="middle" x="196.6855" y="-519" font-family="Helvetica,sans-Serif" font-size="10.00" fill="#000000">Start</text>
</g>
<!-- face_detector_init -->
<g id="node2" class="node">
<title>face_detector_init</title>
<path fill="none" stroke="#000000" d="M242.0855,-468C242.0855,-468 151.2855,-468 151.2855,-468 145.2855,-468 139.2855,-462 139.2855,-456 139.2855,-456 139.2855,-444 139.2855,-444 139.2855,-438 145.2855,-432 151.2855,-432 151.2855,-432 242.0855,-432 242.0855,-432 248.0855,-432 254.0855,-438 254.0855,-444 254.0855,-444 254.0855,-456 254.0855,-456 254.0855,-462 248.0855,-468 242.0855,-468"/>
<text text-anchor="middle" x="196.6855" y="-447" font-family="Helvetica,sans-Serif" font-size="10.00" fill="#000000">Initialize FaceDetector</text>
</g>
<!-- start&#45;&gt;face_detector_init -->
<g id="edge1" class="edge">
<title>start-&gt;face_detector_init</title>
<path fill="none" stroke="#000000" d="M196.6855,-503.8314C196.6855,-496.131 196.6855,-486.9743 196.6855,-478.4166"/>
<polygon fill="#000000" stroke="#000000" points="200.1856,-478.4132 196.6855,-468.4133 193.1856,-478.4133 200.1856,-478.4132"/>
</g>
<!-- capture_face -->
<g id="node3" class="node">
<title>capture_face</title>
<path fill="none" stroke="#000000" d="M222.7557,-396C222.7557,-396 170.6153,-396 170.6153,-396 164.6153,-396 158.6153,-390 158.6153,-384 158.6153,-384 158.6153,-372 158.6153,-372 158.6153,-366 164.6153,-360 170.6153,-360 170.6153,-360 222.7557,-360 222.7557,-360 228.7557,-360 234.7557,-366 234.7557,-372 234.7557,-372 234.7557,-384 234.7557,-384 234.7557,-390 228.7557,-396 222.7557,-396"/>
<text text-anchor="middle" x="196.6855" y="-375" font-family="Helvetica,sans-Serif" font-size="10.00" fill="#000000">Capture Face</text>
</g>
<!-- face_detector_init&#45;&gt;capture_face -->
<g id="edge2" class="edge">
<title>face_detector_init-&gt;capture_face</title>
<path fill="none" stroke="#000000" d="M196.6855,-431.8314C196.6855,-424.131 196.6855,-414.9743 196.6855,-406.4166"/>
<polygon fill="#000000" stroke="#000000" points="200.1856,-406.4132 196.6855,-396.4133 193.1856,-406.4133 200.1856,-406.4132"/>
</g>
<!-- open_cam -->
<g id="node4" class="node">
<title>open_cam</title>
<path fill="none" stroke="#000000" d="M111.9748,-324C111.9748,-324 57.3962,-324 57.3962,-324 51.3962,-324 45.3962,-318 45.3962,-312 45.3962,-312 45.3962,-300 45.3962,-300 45.3962,-294 51.3962,-288 57.3962,-288 57.3962,-288 111.9748,-288 111.9748,-288 117.9748,-288 123.9748,-294 123.9748,-300 123.9748,-300 123.9748,-312 123.9748,-312 123.9748,-318 117.9748,-324 111.9748,-324"/>
<text text-anchor="middle" x="84.6855" y="-303" font-family="Helvetica,sans-Serif" font-size="10.00" fill="#000000">Open Camera</text>
</g>
<!-- capture_face&#45;&gt;open_cam -->
<g id="edge3" class="edge">
<title>capture_face-&gt;open_cam</title>
<path fill="none" stroke="#000000" d="M168.4232,-359.8314C154.2303,-350.7074 136.8573,-339.539 121.6219,-329.7449"/>
<polygon fill="#000000" stroke="#000000" points="123.2433,-326.6263 112.9388,-324.1628 119.4579,-332.5146 123.2433,-326.6263"/>
</g>
<!-- face_trainer_init -->
<g id="node9" class="node">
<title>face_trainer_init</title>
<path fill="none" stroke="#000000" d="M238.9657,-324C238.9657,-324 154.4053,-324 154.4053,-324 148.4053,-324 142.4053,-318 142.4053,-312 142.4053,-312 142.4053,-300 142.4053,-300 142.4053,-294 148.4053,-288 154.4053,-288 154.4053,-288 238.9657,-288 238.9657,-288 244.9657,-288 250.9657,-294 250.9657,-300 250.9657,-300 250.9657,-312 250.9657,-312 250.9657,-318 244.9657,-324 238.9657,-324"/>
<text text-anchor="middle" x="196.6855" y="-303" font-family="Helvetica,sans-Serif" font-size="10.00" fill="#000000">Initialize FaceTrainer</text>
</g>
<!-- capture_face&#45;&gt;face_trainer_init -->
<g id="edge4" class="edge">
<title>capture_face-&gt;face_trainer_init</title>
<path fill="none" stroke="#000000" d="M196.6855,-359.8314C196.6855,-352.131 196.6855,-342.9743 196.6855,-334.4166"/>
<polygon fill="#000000" stroke="#000000" points="200.1856,-334.4132 196.6855,-324.4133 193.1856,-334.4133 200.1856,-334.4132"/>
</g>
<!-- read_img -->
<g id="node5" class="node">
<title>read_img</title>
<path fill="none" stroke="#000000" d="M138.2542,-252C138.2542,-252 31.1168,-252 31.1168,-252 25.1168,-252 19.1168,-246 19.1168,-240 19.1168,-240 19.1168,-228 19.1168,-228 19.1168,-222 25.1168,-216 31.1168,-216 31.1168,-216 138.2542,-216 138.2542,-216 144.2542,-216 150.2542,-222 150.2542,-228 150.2542,-228 150.2542,-240 150.2542,-240 150.2542,-246 144.2542,-252 138.2542,-252"/>
<text text-anchor="middle" x="84.6855" y="-231" font-family="Helvetica,sans-Serif" font-size="10.00" fill="#000000">Read Image from Camera</text>
</g>
<!-- open_cam&#45;&gt;read_img -->
<g id="edge5" class="edge">
<title>open_cam-&gt;read_img</title>
<path fill="none" stroke="#000000" d="M84.6855,-287.8314C84.6855,-280.131 84.6855,-270.9743 84.6855,-262.4166"/>
<polygon fill="#000000" stroke="#000000" points="88.1856,-262.4132 84.6855,-252.4133 81.1856,-262.4133 88.1856,-262.4132"/>
</g>
<!-- detect_faces -->
<g id="node6" class="node">
<title>detect_faces</title>
<path fill="none" stroke="#000000" d="M110.0866,-180C110.0866,-180 59.2844,-180 59.2844,-180 53.2844,-180 47.2844,-174 47.2844,-168 47.2844,-168 47.2844,-156 47.2844,-156 47.2844,-150 53.2844,-144 59.2844,-144 59.2844,-144 110.0866,-144 110.0866,-144 116.0866,-144 122.0866,-150 122.0866,-156 122.0866,-156 122.0866,-168 122.0866,-168 122.0866,-174 116.0866,-180 110.0866,-180"/>
<text text-anchor="middle" x="84.6855" y="-159" font-family="Helvetica,sans-Serif" font-size="10.00" fill="#000000">Detect Faces</text>
</g>
<!-- read_img&#45;&gt;detect_faces -->
<g id="edge6" class="edge">
<title>read_img-&gt;detect_faces</title>
<path fill="none" stroke="#000000" d="M84.6855,-215.8314C84.6855,-208.131 84.6855,-198.9743 84.6855,-190.4166"/>
<polygon fill="#000000" stroke="#000000" points="88.1856,-190.4132 84.6855,-180.4133 81.1856,-190.4133 88.1856,-190.4132"/>
</g>
<!-- save_faces -->
<g id="node7" class="node">
<title>save_faces</title>
<path fill="none" stroke="#000000" d="M133.8679,-108C133.8679,-108 35.5031,-108 35.5031,-108 29.5031,-108 23.5031,-102 23.5031,-96 23.5031,-96 23.5031,-84 23.5031,-84 23.5031,-78 29.5031,-72 35.5031,-72 35.5031,-72 133.8679,-72 133.8679,-72 139.8679,-72 145.8679,-78 145.8679,-84 145.8679,-84 145.8679,-96 145.8679,-96 145.8679,-102 139.8679,-108 133.8679,-108"/>
<text text-anchor="middle" x="84.6855" y="-87" font-family="Helvetica,sans-Serif" font-size="10.00" fill="#000000">Save Faces to Directory</text>
</g>
<!-- detect_faces&#45;&gt;save_faces -->
<g id="edge7" class="edge">
<title>detect_faces-&gt;save_faces</title>
<path fill="none" stroke="#000000" d="M84.6855,-143.8314C84.6855,-136.131 84.6855,-126.9743 84.6855,-118.4166"/>
<polygon fill="#000000" stroke="#000000" points="88.1856,-118.4132 84.6855,-108.4133 81.1856,-118.4133 88.1856,-118.4132"/>
</g>
<!-- end_capture -->
<g id="node8" class="node">
<title>end_capture</title>
<path fill="none" stroke="#000000" d="M157.5569,-36C157.5569,-36 11.8141,-36 11.8141,-36 5.8141,-36 -.1859,-30 -.1859,-24 -.1859,-24 -.1859,-12 -.1859,-12 -.1859,-6 5.8141,0 11.8141,0 11.8141,0 157.5569,0 157.5569,0 163.5569,0 169.5569,-6 169.5569,-12 169.5569,-12 169.5569,-24 169.5569,-24 169.5569,-30 163.5569,-36 157.5569,-36"/>
<text text-anchor="middle" x="84.6855" y="-15" font-family="Helvetica,sans-Serif" font-size="10.00" fill="#000000">End Capture and Release Camera</text>
</g>
<!-- save_faces&#45;&gt;end_capture -->
<g id="edge8" class="edge">
<title>save_faces-&gt;end_capture</title>
<path fill="none" stroke="#000000" d="M84.6855,-71.8314C84.6855,-64.131 84.6855,-54.9743 84.6855,-46.4166"/>
<polygon fill="#000000" stroke="#000000" points="88.1856,-46.4132 84.6855,-36.4133 81.1856,-46.4133 88.1856,-46.4132"/>
</g>
<!-- end_capture&#45;&gt;face_trainer_init -->
<g id="edge9" class="edge">
<title>end_capture-&gt;face_trainer_init</title>
<path fill="none" stroke="#000000" d="M117.7453,-36.0882C131.2503,-45.1331 145.764,-57.3058 154.6855,-72 194.4461,-137.4875 198.6287,-231.03 197.9232,-277.5145"/>
<polygon fill="#000000" stroke="#000000" points="194.4186,-277.6664 197.6751,-287.7483 201.4166,-277.8361 194.4186,-277.6664"/>
</g>
<!-- train_faces -->
<g id="node10" class="node">
<title>train_faces</title>
<path fill="none" stroke="#000000" d="M350.9668,-468C350.9668,-468 306.4042,-468 306.4042,-468 300.4042,-468 294.4042,-462 294.4042,-456 294.4042,-456 294.4042,-444 294.4042,-444 294.4042,-438 300.4042,-432 306.4042,-432 306.4042,-432 350.9668,-432 350.9668,-432 356.9668,-432 362.9668,-438 362.9668,-444 362.9668,-444 362.9668,-456 362.9668,-456 362.9668,-462 356.9668,-468 350.9668,-468"/>
<text text-anchor="middle" x="328.6855" y="-447" font-family="Helvetica,sans-Serif" font-size="10.00" fill="#000000">Train Faces</text>
</g>
<!-- face_trainer_init&#45;&gt;train_faces -->
<g id="edge10" class="edge">
<title>face_trainer_init-&gt;train_faces</title>
<path fill="none" stroke="#000000" d="M213.2676,-324.0896C236.4025,-349.3276 278.4945,-395.2462 304.9494,-424.1061"/>
<polygon fill="#000000" stroke="#000000" points="302.6303,-426.7558 311.9676,-431.7623 307.7904,-422.0257 302.6303,-426.7558"/>
</g>
<!-- get_images_labels -->
<g id="node11" class="node">
<title>get_images_labels</title>
<path fill="none" stroke="#000000" d="M401.5571,-396C401.5571,-396 305.8139,-396 305.8139,-396 299.8139,-396 293.8139,-390 293.8139,-384 293.8139,-384 293.8139,-372 293.8139,-372 293.8139,-366 299.8139,-360 305.8139,-360 305.8139,-360 401.5571,-360 401.5571,-360 407.5571,-360 413.5571,-366 413.5571,-372 413.5571,-372 413.5571,-384 413.5571,-384 413.5571,-390 407.5571,-396 401.5571,-396"/>
<text text-anchor="middle" x="353.6855" y="-375" font-family="Helvetica,sans-Serif" font-size="10.00" fill="#000000">Get Images and Labels</text>
</g>
<!-- train_faces&#45;&gt;get_images_labels -->
<g id="edge11" class="edge">
<title>train_faces-&gt;get_images_labels</title>
<path fill="none" stroke="#000000" d="M334.9941,-431.8314C337.6972,-424.0463 340.9171,-414.7729 343.9165,-406.1347"/>
<polygon fill="#000000" stroke="#000000" points="347.3182,-407.0081 347.292,-396.4133 340.7055,-404.7119 347.3182,-407.0081"/>
</g>
<!-- read_face_samples -->
<g id="node12" class="node">
<title>read_face_samples</title>
<path fill="none" stroke="#000000" d="M428.8075,-324C428.8075,-324 280.5635,-324 280.5635,-324 274.5635,-324 268.5635,-318 268.5635,-312 268.5635,-312 268.5635,-300 268.5635,-300 268.5635,-294 274.5635,-288 280.5635,-288 280.5635,-288 428.8075,-288 428.8075,-288 434.8075,-288 440.8075,-294 440.8075,-300 440.8075,-300 440.8075,-312 440.8075,-312 440.8075,-318 434.8075,-324 428.8075,-324"/>
<text text-anchor="middle" x="354.6855" y="-303" font-family="Helvetica,sans-Serif" font-size="10.00" fill="#000000">Read Face Samples from Directory</text>
</g>
<!-- get_images_labels&#45;&gt;read_face_samples -->
<g id="edge12" class="edge">
<title>get_images_labels-&gt;read_face_samples</title>
<path fill="none" stroke="#000000" d="M353.9378,-359.8314C354.0448,-352.131 354.172,-342.9743 354.2908,-334.4166"/>
<polygon fill="#000000" stroke="#000000" points="357.7904,-334.4609 354.4298,-324.4133 350.7911,-334.3637 357.7904,-334.4609"/>
</g>
<!-- detect_face_samples -->
<g id="node13" class="node">
<title>detect_face_samples</title>
<path fill="none" stroke="#000000" d="M406.3166,-252C406.3166,-252 303.0544,-252 303.0544,-252 297.0544,-252 291.0544,-246 291.0544,-240 291.0544,-240 291.0544,-228 291.0544,-228 291.0544,-222 297.0544,-216 303.0544,-216 303.0544,-216 406.3166,-216 406.3166,-216 412.3166,-216 418.3166,-222 418.3166,-228 418.3166,-228 418.3166,-240 418.3166,-240 418.3166,-246 412.3166,-252 406.3166,-252"/>
<text text-anchor="middle" x="354.6855" y="-231" font-family="Helvetica,sans-Serif" font-size="10.00" fill="#000000">Detect Faces in Samples</text>
</g>
<!-- read_face_samples&#45;&gt;detect_face_samples -->
<g id="edge13" class="edge">
<title>read_face_samples-&gt;detect_face_samples</title>
<path fill="none" stroke="#000000" d="M354.6855,-287.8314C354.6855,-280.131 354.6855,-270.9743 354.6855,-262.4166"/>
<polygon fill="#000000" stroke="#000000" points="358.1856,-262.4132 354.6855,-252.4133 351.1856,-262.4133 358.1856,-262.4132"/>
</g>
<!-- save_face_samples -->
<g id="node14" class="node">
<title>save_face_samples</title>
<path fill="none" stroke="#000000" d="M413.8848,-180C413.8848,-180 295.4862,-180 295.4862,-180 289.4862,-180 283.4862,-174 283.4862,-168 283.4862,-168 283.4862,-156 283.4862,-156 283.4862,-150 289.4862,-144 295.4862,-144 295.4862,-144 413.8848,-144 413.8848,-144 419.8848,-144 425.8848,-150 425.8848,-156 425.8848,-156 425.8848,-168 425.8848,-168 425.8848,-174 419.8848,-180 413.8848,-180"/>
<text text-anchor="middle" x="354.6855" y="-159" font-family="Helvetica,sans-Serif" font-size="10.00" fill="#000000">Save Face Samples and IDs</text>
</g>
<!-- detect_face_samples&#45;&gt;save_face_samples -->
<g id="edge14" class="edge">
<title>detect_face_samples-&gt;save_face_samples</title>
<path fill="none" stroke="#000000" d="M354.6855,-215.8314C354.6855,-208.131 354.6855,-198.9743 354.6855,-190.4166"/>
<polygon fill="#000000" stroke="#000000" points="358.1856,-190.4132 354.6855,-180.4133 351.1856,-190.4133 358.1856,-190.4132"/>
</g>
<!-- write_trainer -->
<g id="node15" class="node">
<title>write_trainer</title>
<path fill="none" stroke="#000000" d="M425.0516,-108C425.0516,-108 284.3194,-108 284.3194,-108 278.3194,-108 272.3194,-102 272.3194,-96 272.3194,-96 272.3194,-84 272.3194,-84 272.3194,-78 278.3194,-72 284.3194,-72 284.3194,-72 425.0516,-72 425.0516,-72 431.0516,-72 437.0516,-78 437.0516,-84 437.0516,-84 437.0516,-96 437.0516,-96 437.0516,-102 431.0516,-108 425.0516,-108"/>
<text text-anchor="middle" x="354.6855" y="-87" font-family="Helvetica,sans-Serif" font-size="10.00" fill="#000000">Write Trained Data to 'trainer.yml'</text>
</g>
<!-- save_face_samples&#45;&gt;write_trainer -->
<g id="edge15" class="edge">
<title>save_face_samples-&gt;write_trainer</title>
<path fill="none" stroke="#000000" d="M354.6855,-143.8314C354.6855,-136.131 354.6855,-126.9743 354.6855,-118.4166"/>
<polygon fill="#000000" stroke="#000000" points="358.1856,-118.4132 354.6855,-108.4133 351.1856,-118.4133 358.1856,-118.4132"/>
</g>
<!-- stop -->
<g id="node16" class="node">
<title>stop</title>
<path fill="none" stroke="#000000" d="M369.6855,-36C369.6855,-36 339.6855,-36 339.6855,-36 333.6855,-36 327.6855,-30 327.6855,-24 327.6855,-24 327.6855,-12 327.6855,-12 327.6855,-6 333.6855,0 339.6855,0 339.6855,0 369.6855,0 369.6855,0 375.6855,0 381.6855,-6 381.6855,-12 381.6855,-12 381.6855,-24 381.6855,-24 381.6855,-30 375.6855,-36 369.6855,-36"/>
<text text-anchor="middle" x="354.6855" y="-15" font-family="Helvetica,sans-Serif" font-size="10.00" fill="#000000">Stop</text>
</g>
<!-- write_trainer&#45;&gt;stop -->
<g id="edge16" class="edge">
<title>write_trainer-&gt;stop</title>
<path fill="none" stroke="#000000" d="M354.6855,-71.8314C354.6855,-64.131 354.6855,-54.9743 354.6855,-46.4166"/>
<polygon fill="#000000" stroke="#000000" points="358.1856,-46.4132 354.6855,-36.4133 351.1856,-46.4133 358.1856,-46.4132"/>
</g>
</g>
</svg>