<?xml version="1.0" encoding="UTF-8" standalone="no"?><!DOCTYPE svg PUBLIC "-//W3C//DTD SVG 1.1//EN" "http://www.w3.org/Graphics/SVG/1.1/DTD/svg11.dtd"><!-- Generated by graphviz version 2.40.1 (20161225.0304)
 --><!-- Title: G Pages: 1 --><svg xmlns="http://www.w3.org/2000/svg" xmlns:xlink="http://www.w3.org/1999/xlink" width="269pt" height="783pt" viewBox="0.00 0.00 268.90 783.40">
<g id="graph0" class="graph" transform="scale(1 1) rotate(0) translate(4 779.4)">
<title>G</title>
<polygon fill="#ffffff" stroke="transparent" points="-4,4 -4,-779.4 264.8995,-779.4 264.8995,4 -4,4"/>
<!-- start -->
<g id="node1" class="node">
<title>start</title>
<path fill="none" stroke="#000000" d="M103.8995,-775.4C103.8995,-775.4 73.8995,-775.4 73.8995,-775.4 67.8995,-775.4 61.8995,-769.4 61.8995,-763.4 61.8995,-763.4 61.8995,-751.4 61.8995,-751.4 61.8995,-745.4 67.8995,-739.4 73.8995,-739.4 73.8995,-739.4 103.8995,-739.4 103.8995,-739.4 109.8995,-739.4 115.8995,-745.4 115.8995,-751.4 115.8995,-751.4 115.8995,-763.4 115.8995,-763.4 115.8995,-769.4 109.8995,-775.4 103.8995,-775.4"/>
<text text-anchor="middle" x="88.8995" y="-754.4" font-family="Helvetica,sans-Serif" font-size="10.00" fill="#000000">Start</text>
</g>
<!-- init_app -->
<g id="node2" class="node">
<title>init_app</title>
<path fill="none" stroke="#000000" d="M126.7431,-702.4C126.7431,-702.4 51.0559,-702.4 51.0559,-702.4 45.0559,-702.4 39.0559,-696.4 39.0559,-690.4 39.0559,-690.4 39.0559,-678.4 39.0559,-678.4 39.0559,-672.4 45.0559,-666.4 51.0559,-666.4 51.0559,-666.4 126.7431,-666.4 126.7431,-666.4 132.7431,-666.4 138.7431,-672.4 138.7431,-678.4 138.7431,-678.4 138.7431,-690.4 138.7431,-690.4 138.7431,-696.4 132.7431,-702.4 126.7431,-702.4"/>
<text text-anchor="middle" x="88.8995" y="-681.4" font-family="Helvetica,sans-Serif" font-size="10.00" fill="#000000">Initialize Flask App</text>
</g>
<!-- start&#45;&gt;init_app -->
<g id="edge1" class="edge">
<title>start-&gt;init_app</title>
<path fill="none" stroke="#000000" d="M88.8995,-739.3551C88.8995,-731.2828 88.8995,-721.5764 88.8995,-712.5817"/>
<polygon fill="#000000" stroke="#000000" points="92.3996,-712.4903 88.8995,-702.4904 85.3996,-712.4904 92.3996,-712.4903"/>
</g>
<!-- load_db -->
<g id="node3" class="node">
<title>load_db</title>
<path fill="none" stroke="#000000" d="M147.3773,-629.4C147.3773,-629.4 30.4217,-629.4 30.4217,-629.4 24.4217,-629.4 18.4217,-623.4 18.4217,-617.4 18.4217,-617.4 18.4217,-605.4 18.4217,-605.4 18.4217,-599.4 24.4217,-593.4 30.4217,-593.4 30.4217,-593.4 147.3773,-593.4 147.3773,-593.4 153.3773,-593.4 159.3773,-599.4 159.3773,-605.4 159.3773,-605.4 159.3773,-617.4 159.3773,-617.4 159.3773,-623.4 153.3773,-629.4 147.3773,-629.4"/>
<text text-anchor="middle" x="88.8995" y="-608.4" font-family="Helvetica,sans-Serif" font-size="10.00" fill="#000000">Load/Create User Database</text>
</g>
<!-- init_app&#45;&gt;load_db -->
<g id="edge2" class="edge">
<title>init_app-&gt;load_db</title>
<path fill="none" stroke="#000000" d="M88.8995,-666.3551C88.8995,-658.2828 88.8995,-648.5764 88.8995,-639.5817"/>
<polygon fill="#000000" stroke="#000000" points="92.3996,-639.4903 88.8995,-629.4904 85.3996,-639.4904 92.3996,-639.4903"/>
</g>
<!-- post_register -->
<g id="node4" class="node">
<title>post_register</title>
<path fill="none" stroke="#000000" d="M126.1927,-556.4C126.1927,-556.4 51.6063,-556.4 51.6063,-556.4 45.6063,-556.4 39.6063,-550.4 39.6063,-544.4 39.6063,-544.4 39.6063,-532.4 39.6063,-532.4 39.6063,-526.4 45.6063,-520.4 51.6063,-520.4 51.6063,-520.4 126.1927,-520.4 126.1927,-520.4 132.1927,-520.4 138.1927,-526.4 138.1927,-532.4 138.1927,-532.4 138.1927,-544.4 138.1927,-544.4 138.1927,-550.4 132.1927,-556.4 126.1927,-556.4"/>
<text text-anchor="middle" x="88.8995" y="-535.4" font-family="Helvetica,sans-Serif" font-size="10.00" fill="#000000">POST to /register?</text>
</g>
<!-- load_db&#45;&gt;post_register -->
<g id="edge3" class="edge">
<title>load_db-&gt;post_register</title>
<path fill="none" stroke="#000000" d="M88.8995,-593.3551C88.8995,-585.2828 88.8995,-575.5764 88.8995,-566.5817"/>
<polygon fill="#000000" stroke="#000000" points="92.3996,-566.4903 88.8995,-556.4904 85.3996,-566.4904 92.3996,-566.4903"/>
</g>
<!-- add_user_train -->
<g id="node5" class="node">
<title>add_user_train</title>
<path fill="none" stroke="#000000" d="M111.6987,-413.6C111.6987,-413.6 12.1003,-413.6 12.1003,-413.6 6.1003,-413.6 .1003,-407.6 .1003,-401.6 .1003,-401.6 .1003,-389.6 .1003,-389.6 .1003,-383.6 6.1003,-377.6 12.1003,-377.6 12.1003,-377.6 111.6987,-377.6 111.6987,-377.6 117.6987,-377.6 123.6987,-383.6 123.6987,-389.6 123.6987,-389.6 123.6987,-401.6 123.6987,-401.6 123.6987,-407.6 117.6987,-413.6 111.6987,-413.6"/>
<text text-anchor="middle" x="61.8995" y="-392.6" font-family="Helvetica,sans-Serif" font-size="10.00" fill="#000000">Add new User and Train</text>
</g>
<!-- post_register&#45;&gt;add_user_train -->
<g id="edge4" class="edge">
<title>post_register-&gt;add_user_train</title>
<path fill="none" stroke="#000000" d="M85.4799,-520.3143C80.8999,-496.0908 72.7233,-452.8461 67.3049,-424.1888"/>
<polygon fill="#000000" stroke="#000000" points="70.6736,-423.1656 65.3766,-413.9899 63.7954,-424.4661 70.6736,-423.1656"/>
<text text-anchor="middle" x="92.2291" y="-489.8" font-family="Times,serif" font-size="14.00" fill="#000000">yes</text>
</g>
<!-- post_face_login -->
<g id="node6" class="node">
<title>post_face_login</title>
<path fill="none" stroke="#000000" d="M195.4305,-467.6C195.4305,-467.6 108.3685,-467.6 108.3685,-467.6 102.3685,-467.6 96.3685,-461.6 96.3685,-455.6 96.3685,-455.6 96.3685,-443.6 96.3685,-443.6 96.3685,-437.6 102.3685,-431.6 108.3685,-431.6 108.3685,-431.6 195.4305,-431.6 195.4305,-431.6 201.4305,-431.6 207.4305,-437.6 207.4305,-443.6 207.4305,-443.6 207.4305,-455.6 207.4305,-455.6 207.4305,-461.6 201.4305,-467.6 195.4305,-467.6"/>
<text text-anchor="middle" x="151.8995" y="-446.6" font-family="Helvetica,sans-Serif" font-size="10.00" fill="#000000">POST to /face_login?</text>
</g>
<!-- post_register&#45;&gt;post_face_login -->
<g id="edge6" class="edge">
<title>post_register-&gt;post_face_login</title>
<path fill="none" stroke="#000000" d="M101.9531,-520.0006C110.9668,-507.2956 123.0918,-490.2051 133.138,-476.0448"/>
<polygon fill="#000000" stroke="#000000" points="136.1464,-477.8532 139.0781,-467.672 130.4372,-473.8027 136.1464,-477.8532"/>
<text text-anchor="middle" x="132.8995" y="-489.8" font-family="Times,serif" font-size="14.00" fill="#000000">no</text>
</g>
<!-- stop -->
<g id="node11" class="node">
<title>stop</title>
<path fill="none" stroke="#000000" d="M188.8995,-36C188.8995,-36 158.8995,-36 158.8995,-36 152.8995,-36 146.8995,-30 146.8995,-24 146.8995,-24 146.8995,-12 146.8995,-12 146.8995,-6 152.8995,0 158.8995,0 158.8995,0 188.8995,0 188.8995,0 194.8995,0 200.8995,-6 200.8995,-12 200.8995,-12 200.8995,-24 200.8995,-24 200.8995,-30 194.8995,-36 188.8995,-36"/>
<text text-anchor="middle" x="173.8995" y="-15" font-family="Helvetica,sans-Serif" font-size="10.00" fill="#000000">Stop</text>
</g>
<!-- add_user_train&#45;&gt;stop -->
<g id="edge5" class="edge">
<title>add_user_train-&gt;stop</title>
<path fill="none" stroke="#000000" d="M60.3175,-377.5869C58.8526,-359.3345 56.8995,-330.2772 56.8995,-305.1 56.8995,-305.1 56.8995,-305.1 56.8995,-91 56.8995,-52.648 102.7098,-33.7096 137.0004,-24.9059"/>
<polygon fill="#000000" stroke="#000000" points="137.8433,-28.3031 146.7633,-22.5861 136.225,-21.4927 137.8433,-28.3031"/>
</g>
<!-- recognize_login -->
<g id="node7" class="node">
<title>recognize_login</title>
<path fill="none" stroke="#000000" d="M207.278,-359.6C207.278,-359.6 96.521,-359.6 96.521,-359.6 90.521,-359.6 84.521,-353.6 84.521,-347.6 84.521,-347.6 84.521,-335.6 84.521,-335.6 84.521,-329.6 90.521,-323.6 96.521,-323.6 96.521,-323.6 207.278,-323.6 207.278,-323.6 213.278,-323.6 219.278,-329.6 219.278,-335.6 219.278,-335.6 219.278,-347.6 219.278,-347.6 219.278,-353.6 213.278,-359.6 207.278,-359.6"/>
<text text-anchor="middle" x="151.8995" y="-338.6" font-family="Helvetica,sans-Serif" font-size="10.00" fill="#000000">Recognize face and Log in</text>
</g>
<!-- post_face_login&#45;&gt;recognize_login -->
<g id="edge7" class="edge">
<title>post_face_login-&gt;recognize_login</title>
<path fill="none" stroke="#000000" d="M151.8995,-431.2793C151.8995,-414.421 151.8995,-389.1651 151.8995,-369.747"/>
<polygon fill="#000000" stroke="#000000" points="155.3996,-369.6501 151.8995,-359.6502 148.3996,-369.6502 155.3996,-369.6501"/>
<text text-anchor="middle" x="161.2291" y="-391.4" font-family="Times,serif" font-size="14.00" fill="#000000">yes</text>
</g>
<!-- post_face_login&#45;&gt;stop -->
<g id="edge8" class="edge">
<title>post_face_login-&gt;stop</title>
<path fill="none" stroke="#000000" d="M183.0061,-431.5827C210.7121,-412.9473 246.8995,-381.0552 246.8995,-341.6 246.8995,-341.6 246.8995,-341.6 246.8995,-91 246.8995,-67.7909 228.2215,-49.3834 209.7613,-36.8584"/>
<polygon fill="#000000" stroke="#000000" points="211.4015,-33.7542 201.082,-31.3545 207.6527,-39.6657 211.4015,-33.7542"/>
<text text-anchor="middle" x="253.8995" y="-220" font-family="Times,serif" font-size="14.00" fill="#000000">no</text>
</g>
<!-- display_form -->
<g id="node8" class="node">
<title>display_form</title>
<path fill="none" stroke="#000000" d="M177.2796,-286.6C177.2796,-286.6 126.5194,-286.6 126.5194,-286.6 120.5194,-286.6 114.5194,-280.6 114.5194,-274.6 114.5194,-274.6 114.5194,-262.6 114.5194,-262.6 114.5194,-256.6 120.5194,-250.6 126.5194,-250.6 126.5194,-250.6 177.2796,-250.6 177.2796,-250.6 183.2796,-250.6 189.2796,-256.6 189.2796,-262.6 189.2796,-262.6 189.2796,-274.6 189.2796,-274.6 189.2796,-280.6 183.2796,-286.6 177.2796,-286.6"/>
<text text-anchor="middle" x="151.8995" y="-265.6" font-family="Helvetica,sans-Serif" font-size="10.00" fill="#000000">Display Form</text>
</g>
<!-- recognize_login&#45;&gt;display_form -->
<g id="edge9" class="edge">
<title>recognize_login-&gt;display_form</title>
<path fill="none" stroke="#000000" d="M151.8995,-323.5551C151.8995,-315.4828 151.8995,-305.7764 151.8995,-296.7817"/>
<polygon fill="#000000" stroke="#000000" points="155.3996,-296.6903 151.8995,-286.6904 148.3996,-296.6904 155.3996,-296.6903"/>
</g>
<!-- post_logout -->
<g id="node9" class="node">
<title>post_logout</title>
<path fill="none" stroke="#000000" d="M186.094,-197.8C186.094,-197.8 117.705,-197.8 117.705,-197.8 111.705,-197.8 105.705,-191.8 105.705,-185.8 105.705,-185.8 105.705,-173.8 105.705,-173.8 105.705,-167.8 111.705,-161.8 117.705,-161.8 117.705,-161.8 186.094,-161.8 186.094,-161.8 192.094,-161.8 198.094,-167.8 198.094,-173.8 198.094,-173.8 198.094,-185.8 198.094,-185.8 198.094,-191.8 192.094,-197.8 186.094,-197.8"/>
<text text-anchor="middle" x="151.8995" y="-176.8" font-family="Helvetica,sans-Serif" font-size="10.00" fill="#000000">POST to /logout?</text>
</g>
<!-- display_form&#45;&gt;post_logout -->
<g id="edge10" class="edge">
<title>display_form-&gt;post_logout</title>
<path fill="none" stroke="#000000" d="M151.8995,-250.2006C151.8995,-238.0949 151.8995,-222.0076 151.8995,-208.2674"/>
<polygon fill="#000000" stroke="#000000" points="155.3996,-207.872 151.8995,-197.872 148.3996,-207.8721 155.3996,-207.872"/>
</g>
<!-- logout -->
<g id="node10" class="node">
<title>logout</title>
<path fill="none" stroke="#000000" d="M141.8995,-109C141.8995,-109 111.8995,-109 111.8995,-109 105.8995,-109 99.8995,-103 99.8995,-97 99.8995,-97 99.8995,-85 99.8995,-85 99.8995,-79 105.8995,-73 111.8995,-73 111.8995,-73 141.8995,-73 141.8995,-73 147.8995,-73 153.8995,-79 153.8995,-85 153.8995,-85 153.8995,-97 153.8995,-97 153.8995,-103 147.8995,-109 141.8995,-109"/>
<text text-anchor="middle" x="126.8995" y="-88" font-family="Helvetica,sans-Serif" font-size="10.00" fill="#000000">Logout</text>
</g>
<!-- post_logout&#45;&gt;logout -->
<g id="edge11" class="edge">
<title>post_logout-&gt;logout</title>
<path fill="none" stroke="#000000" d="M146.7195,-161.4006C143.2776,-149.175 138.6925,-132.8887 134.7993,-119.0599"/>
<polygon fill="#000000" stroke="#000000" points="138.0664,-117.7493 131.9873,-109.072 131.3283,-119.6463 138.0664,-117.7493"/>
<text text-anchor="middle" x="150.2291" y="-131.2" font-family="Times,serif" font-size="14.00" fill="#000000">yes</text>
</g>
<!-- post_logout&#45;&gt;stop -->
<g id="edge12" class="edge">
<title>post_logout-&gt;stop</title>
<path fill="none" stroke="#000000" d="M158.8775,-161.7193C160.8028,-156.0595 162.6922,-149.7396 163.8995,-143.8 170.6204,-110.736 172.874,-71.928 173.6029,-46.2518"/>
<polygon fill="#000000" stroke="#000000" points="177.1052,-46.1827 173.8305,-36.1067 170.107,-46.0257 177.1052,-46.1827"/>
<text text-anchor="middle" x="178.8995" y="-86.8" font-family="Times,serif" font-size="14.00" fill="#000000">no</text>
</g>
<!-- logout&#45;&gt;stop -->
<g id="edge13" class="edge">
<title>logout-&gt;stop</title>
<path fill="none" stroke="#000000" d="M138.5175,-72.9551C143.9971,-64.4441 150.6464,-54.1165 156.695,-44.7219"/>
<polygon fill="#000000" stroke="#000000" points="159.7817,-46.3931 162.2523,-36.0904 153.896,-42.6037 159.7817,-46.3931"/>
</g>
</g>
</svg>