<?xml version="1.0" encoding="UTF-8" standalone="no"?><!DOCTYPE svg PUBLIC "-//W3C//DTD SVG 1.1//EN" "http://www.w3.org/Graphics/SVG/1.1/DTD/svg11.dtd"><!-- Generated by graphviz version 2.40.1 (20161225.0304)
 --><!-- Title: G Pages: 1 --><svg xmlns="http://www.w3.org/2000/svg" xmlns:xlink="http://www.w3.org/1999/xlink" width="397pt" height="790pt" viewBox="0.00 0.00 396.56 789.80">
<g id="graph0" class="graph" transform="scale(1 1) rotate(0) translate(4 785.8)">
<title>G</title>
<polygon fill="#ffffff" stroke="transparent" points="-4,4 -4,-785.8 392.564,-785.8 392.564,4 -4,4"/>
<!-- start -->
<g id="node1" class="node">
<title>start</title>
<path fill="none" stroke="#000000" d="M91.9065,-781.8C91.9065,-781.8 61.9065,-781.8 61.9065,-781.8 55.9065,-781.8 49.9065,-775.8 49.9065,-769.8 49.9065,-769.8 49.9065,-757.8 49.9065,-757.8 49.9065,-751.8 55.9065,-745.8 61.9065,-745.8 61.9065,-745.8 91.9065,-745.8 91.9065,-745.8 97.9065,-745.8 103.9065,-751.8 103.9065,-757.8 103.9065,-757.8 103.9065,-769.8 103.9065,-769.8 103.9065,-775.8 97.9065,-781.8 91.9065,-781.8"/>
<text text-anchor="middle" x="76.9065" y="-760.8" font-family="Helvetica,sans-Serif" font-size="10.00" fill="#000000">Start</text>
</g>
<!-- init -->
<g id="node2" class="node">
<title>init</title>
<path fill="none" stroke="#000000" d="M128.5859,-708.8C128.5859,-708.8 25.2271,-708.8 25.2271,-708.8 19.2271,-708.8 13.2271,-702.8 13.2271,-696.8 13.2271,-696.8 13.2271,-684.8 13.2271,-684.8 13.2271,-678.8 19.2271,-672.8 25.2271,-672.8 25.2271,-672.8 128.5859,-672.8 128.5859,-672.8 134.5859,-672.8 140.5859,-678.8 140.5859,-684.8 140.5859,-684.8 140.5859,-696.8 140.5859,-696.8 140.5859,-702.8 134.5859,-708.8 128.5859,-708.8"/>
<text text-anchor="middle" x="76.9065" y="-687.8" font-family="Helvetica,sans-Serif" font-size="10.00" fill="#000000">Initialize FaceRecognizer</text>
</g>
<!-- start&#45;&gt;init -->
<g id="edge1" class="edge">
<title>start-&gt;init</title>
<path fill="none" stroke="#000000" d="M76.9065,-745.7551C76.9065,-737.6828 76.9065,-727.9764 76.9065,-718.9817"/>
<polygon fill="#000000" stroke="#000000" points="80.4066,-718.8903 76.9065,-708.8904 73.4066,-718.8904 80.4066,-718.8903"/>
</g>
<!-- recognizer -->
<g id="node3" class="node">
<title>recognizer</title>
<path fill="none" stroke="#000000" d="M138.5948,-635.8C138.5948,-635.8 15.2182,-635.8 15.2182,-635.8 9.2182,-635.8 3.2182,-629.8 3.2182,-623.8 3.2182,-623.8 3.2182,-611.8 3.2182,-611.8 3.2182,-605.8 9.2182,-599.8 15.2182,-599.8 15.2182,-599.8 138.5948,-599.8 138.5948,-599.8 144.5948,-599.8 150.5948,-605.8 150.5948,-611.8 150.5948,-611.8 150.5948,-623.8 150.5948,-623.8 150.5948,-629.8 144.5948,-635.8 138.5948,-635.8"/>
<text text-anchor="middle" x="76.9065" y="-614.8" font-family="Helvetica,sans-Serif" font-size="10.00" fill="#000000">Create LBPHFaceRecognizer</text>
</g>
<!-- init&#45;&gt;recognizer -->
<g id="edge2" class="edge">
<title>init-&gt;recognizer</title>
<path fill="none" stroke="#000000" d="M76.9065,-672.7551C76.9065,-664.6828 76.9065,-654.9764 76.9065,-645.9817"/>
<polygon fill="#000000" stroke="#000000" points="80.4066,-645.8903 76.9065,-635.8904 73.4066,-645.8904 80.4066,-645.8903"/>
</g>
<!-- read_trainer -->
<g id="node4" class="node">
<title>read_trainer</title>
<path fill="none" stroke="#000000" d="M109.7421,-562.8C109.7421,-562.8 44.0709,-562.8 44.0709,-562.8 38.0709,-562.8 32.0709,-556.8 32.0709,-550.8 32.0709,-550.8 32.0709,-538.8 32.0709,-538.8 32.0709,-532.8 38.0709,-526.8 44.0709,-526.8 44.0709,-526.8 109.7421,-526.8 109.7421,-526.8 115.7421,-526.8 121.7421,-532.8 121.7421,-538.8 121.7421,-538.8 121.7421,-550.8 121.7421,-550.8 121.7421,-556.8 115.7421,-562.8 109.7421,-562.8"/>
<text text-anchor="middle" x="76.9065" y="-541.8" font-family="Helvetica,sans-Serif" font-size="10.00" fill="#000000">Read trainer.yml</text>
</g>
<!-- recognizer&#45;&gt;read_trainer -->
<g id="edge3" class="edge">
<title>recognizer-&gt;read_trainer</title>
<path fill="none" stroke="#000000" d="M76.9065,-599.7551C76.9065,-591.6828 76.9065,-581.9764 76.9065,-572.9817"/>
<polygon fill="#000000" stroke="#000000" points="80.4066,-572.8903 76.9065,-562.8904 73.4066,-572.8904 80.4066,-572.8903"/>
</g>
<!-- load_cascade -->
<g id="node5" class="node">
<title>load_cascade</title>
<path fill="none" stroke="#000000" d="M127.258,-489.8C127.258,-489.8 26.555,-489.8 26.555,-489.8 20.555,-489.8 14.555,-483.8 14.555,-477.8 14.555,-477.8 14.555,-465.8 14.555,-465.8 14.555,-459.8 20.555,-453.8 26.555,-453.8 26.555,-453.8 127.258,-453.8 127.258,-453.8 133.258,-453.8 139.258,-459.8 139.258,-465.8 139.258,-465.8 139.258,-477.8 139.258,-477.8 139.258,-483.8 133.258,-489.8 127.258,-489.8"/>
<text text-anchor="middle" x="76.9065" y="-468.8" font-family="Helvetica,sans-Serif" font-size="10.00" fill="#000000">Load Cascade Classifier</text>
</g>
<!-- read_trainer&#45;&gt;load_cascade -->
<g id="edge4" class="edge">
<title>read_trainer-&gt;load_cascade</title>
<path fill="none" stroke="#000000" d="M76.9065,-526.7551C76.9065,-518.6828 76.9065,-508.9764 76.9065,-499.9817"/>
<polygon fill="#000000" stroke="#000000" points="80.4066,-499.8903 76.9065,-489.8904 73.4066,-499.8904 80.4066,-499.8903"/>
</g>
<!-- start_cam -->
<g id="node6" class="node">
<title>start_cam</title>
<path fill="none" stroke="#000000" d="M116.7077,-416.8C116.7077,-416.8 37.1053,-416.8 37.1053,-416.8 31.1053,-416.8 25.1053,-410.8 25.1053,-404.8 25.1053,-404.8 25.1053,-392.8 25.1053,-392.8 25.1053,-386.8 31.1053,-380.8 37.1053,-380.8 37.1053,-380.8 116.7077,-380.8 116.7077,-380.8 122.7077,-380.8 128.7077,-386.8 128.7077,-392.8 128.7077,-392.8 128.7077,-404.8 128.7077,-404.8 128.7077,-410.8 122.7077,-416.8 116.7077,-416.8"/>
<text text-anchor="middle" x="76.9065" y="-395.8" font-family="Helvetica,sans-Serif" font-size="10.00" fill="#000000">Start Video Capture</text>
</g>
<!-- load_cascade&#45;&gt;start_cam -->
<g id="edge5" class="edge">
<title>load_cascade-&gt;start_cam</title>
<path fill="none" stroke="#000000" d="M76.9065,-453.7551C76.9065,-445.6828 76.9065,-435.9764 76.9065,-426.9817"/>
<polygon fill="#000000" stroke="#000000" points="80.4066,-426.8903 76.9065,-416.8904 73.4066,-426.8904 80.4066,-426.8903"/>
</g>
<!-- start_time -->
<g id="node7" class="node">
<title>start_time</title>
<path fill="none" stroke="#000000" d="M96.0156,-328C96.0156,-328 57.7974,-328 57.7974,-328 51.7974,-328 45.7974,-322 45.7974,-316 45.7974,-316 45.7974,-304 45.7974,-304 45.7974,-298 51.7974,-292 57.7974,-292 57.7974,-292 96.0156,-292 96.0156,-292 102.0156,-292 108.0156,-298 108.0156,-304 108.0156,-304 108.0156,-316 108.0156,-316 108.0156,-322 102.0156,-328 96.0156,-328"/>
<text text-anchor="middle" x="76.9065" y="-307" font-family="Helvetica,sans-Serif" font-size="10.00" fill="#000000">Start timer</text>
</g>
<!-- start_cam&#45;&gt;start_time -->
<g id="edge6" class="edge">
<title>start_cam-&gt;start_time</title>
<path fill="none" stroke="#000000" d="M76.9065,-380.4006C76.9065,-368.2949 76.9065,-352.2076 76.9065,-338.4674"/>
<polygon fill="#000000" stroke="#000000" points="80.4066,-338.072 76.9065,-328.072 73.4066,-338.0721 80.4066,-338.072"/>
</g>
<!-- face_detection -->
<g id="node8" class="node">
<title>face_detection</title>
<path fill="none" stroke="#000000" d="M141.7196,-255C141.7196,-255 12.0934,-255 12.0934,-255 6.0934,-255 .0934,-249 .0934,-243 .0934,-243 .0934,-231 .0934,-231 .0934,-225 6.0934,-219 12.0934,-219 12.0934,-219 141.7196,-219 141.7196,-219 147.7196,-219 153.7196,-225 153.7196,-231 153.7196,-231 153.7196,-243 153.7196,-243 153.7196,-249 147.7196,-255 141.7196,-255"/>
<text text-anchor="middle" x="76.9065" y="-234" font-family="Helvetica,sans-Serif" font-size="10.00" fill="#000000">Detect faces in the video frame</text>
</g>
<!-- start_time&#45;&gt;face_detection -->
<g id="edge7" class="edge">
<title>start_time-&gt;face_detection</title>
<path fill="none" stroke="#000000" d="M76.9065,-291.9551C76.9065,-283.8828 76.9065,-274.1764 76.9065,-265.1817"/>
<polygon fill="#000000" stroke="#000000" points="80.4066,-265.0903 76.9065,-255.0904 73.4066,-265.0904 80.4066,-265.0903"/>
</g>
<!-- predict_face -->
<g id="node9" class="node">
<title>predict_face</title>
<path fill="none" stroke="#000000" d="M177.28,-182C177.28,-182 46.533,-182 46.533,-182 40.533,-182 34.533,-176 34.533,-170 34.533,-170 34.533,-158 34.533,-158 34.533,-152 40.533,-146 46.533,-146 46.533,-146 177.28,-146 177.28,-146 183.28,-146 189.28,-152 189.28,-158 189.28,-158 189.28,-170 189.28,-170 189.28,-176 183.28,-182 177.28,-182"/>
<text text-anchor="middle" x="111.9065" y="-161" font-family="Helvetica,sans-Serif" font-size="10.00" fill="#000000">Predict face ID and Confidence</text>
</g>
<!-- face_detection&#45;&gt;predict_face -->
<g id="edge8" class="edge">
<title>face_detection-&gt;predict_face</title>
<path fill="none" stroke="#000000" d="M85.5582,-218.9551C89.5546,-210.6196 94.3866,-200.5416 98.8155,-191.3042"/>
<polygon fill="#000000" stroke="#000000" points="102.0657,-192.6207 103.233,-182.0904 95.7537,-189.5944 102.0657,-192.6207"/>
</g>
<!-- draw_rectangle -->
<g id="node10" class="node">
<title>draw_rectangle</title>
<path fill="none" stroke="#000000" d="M304.1028,-109C304.1028,-109 185.7102,-109 185.7102,-109 179.7102,-109 173.7102,-103 173.7102,-97 173.7102,-97 173.7102,-85 173.7102,-85 173.7102,-79 179.7102,-73 185.7102,-73 185.7102,-73 304.1028,-73 304.1028,-73 310.1028,-73 316.1028,-79 316.1028,-85 316.1028,-85 316.1028,-97 316.1028,-97 316.1028,-103 310.1028,-109 304.1028,-109"/>
<text text-anchor="middle" x="244.9065" y="-88" font-family="Helvetica,sans-Serif" font-size="10.00" fill="#000000">Draw Rectangle around face</text>
</g>
<!-- predict_face&#45;&gt;draw_rectangle -->
<g id="edge9" class="edge">
<title>predict_face-&gt;draw_rectangle</title>
<path fill="none" stroke="#000000" d="M144.7829,-145.9551C162.3673,-136.3035 184.2081,-124.3156 202.9995,-114.0016"/>
<polygon fill="#000000" stroke="#000000" points="204.8651,-116.9702 211.9474,-109.0904 201.4969,-110.8338 204.8651,-116.9702"/>
</g>
<!-- display_name -->
<g id="node11" class="node">
<title>display_name</title>
<path fill="none" stroke="#000000" d="M376.722,-36C376.722,-36 291.091,-36 291.091,-36 285.091,-36 279.091,-30 279.091,-24 279.091,-24 279.091,-12 279.091,-12 279.091,-6 285.091,0 291.091,0 291.091,0 376.722,0 376.722,0 382.722,0 388.722,-6 388.722,-12 388.722,-12 388.722,-24 388.722,-24 388.722,-30 382.722,-36 376.722,-36"/>
<text text-anchor="middle" x="333.9065" y="-15" font-family="Helvetica,sans-Serif" font-size="10.00" fill="#000000">Display User's Name</text>
</g>
<!-- draw_rectangle&#45;&gt;display_name -->
<g id="edge10" class="edge">
<title>draw_rectangle-&gt;display_name</title>
<path fill="none" stroke="#000000" d="M266.9065,-72.9551C278.0316,-63.8299 291.7029,-52.6165 303.7884,-42.7036"/>
<polygon fill="#000000" stroke="#000000" points="306.3389,-45.1384 311.8511,-36.0904 301.8996,-39.7261 306.3389,-45.1384"/>
</g>
<!-- check_confidence -->
<g id="node12" class="node">
<title>check_confidence</title>
<path fill="none" stroke="#000000" d="M348.473,-416.8C348.473,-416.8 179.34,-416.8 179.34,-416.8 173.34,-416.8 167.34,-410.8 167.34,-404.8 167.34,-404.8 167.34,-392.8 167.34,-392.8 167.34,-386.8 173.34,-380.8 179.34,-380.8 179.34,-380.8 348.473,-380.8 348.473,-380.8 354.473,-380.8 360.473,-386.8 360.473,-392.8 360.473,-392.8 360.473,-404.8 360.473,-404.8 360.473,-410.8 354.473,-416.8 348.473,-416.8"/>
<text text-anchor="middle" x="263.9065" y="-395.8" font-family="Helvetica,sans-Serif" font-size="10.00" fill="#000000">Check Confidence &gt; 10 and id not None</text>
</g>
<!-- display_name&#45;&gt;check_confidence -->
<g id="edge11" class="edge">
<title>display_name-&gt;check_confidence</title>
<path fill="none" stroke="#000000" d="M355.4012,-36.1353C368.9529,-49.678 383.9065,-69.494 383.9065,-91 383.9065,-310 383.9065,-310 383.9065,-310 383.9065,-340.9867 357.7321,-362.3989 329.8319,-376.4209"/>
<polygon fill="#000000" stroke="#000000" points="328.289,-373.2788 320.7437,-380.7166 331.2804,-379.6075 328.289,-373.2788"/>
</g>
<!-- check_confidence&#45;&gt;face_detection -->
<g id="edge13" class="edge">
<title>check_confidence-&gt;face_detection</title>
<path fill="none" stroke="#000000" d="M238.0807,-380.7261C218.7961,-366.9043 192.062,-347.0446 169.9065,-328 145.624,-307.1271 119.7191,-281.4691 101.4333,-262.7246"/>
<polygon fill="#000000" stroke="#000000" points="103.5632,-259.8932 94.09,-255.1487 98.5369,-264.7652 103.5632,-259.8932"/>
<text text-anchor="middle" x="176.9065" y="-305.8" font-family="Times,serif" font-size="14.00" fill="#000000">no</text>
</g>
<!-- set_id_confidence -->
<g id="node13" class="node">
<title>set_id_confidence</title>
<path fill="none" stroke="#000000" d="M322.4505,-328C322.4505,-328 205.3625,-328 205.3625,-328 199.3625,-328 193.3625,-322 193.3625,-316 193.3625,-316 193.3625,-304 193.3625,-304 193.3625,-298 199.3625,-292 205.3625,-292 205.3625,-292 322.4505,-292 322.4505,-292 328.4505,-292 334.4505,-298 334.4505,-304 334.4505,-304 334.4505,-316 334.4505,-316 334.4505,-322 328.4505,-328 322.4505,-328"/>
<text text-anchor="middle" x="263.9065" y="-307" font-family="Helvetica,sans-Serif" font-size="10.00" fill="#000000">Set return id and confidence</text>
</g>
<!-- check_confidence&#45;&gt;set_id_confidence -->
<g id="edge12" class="edge">
<title>check_confidence-&gt;set_id_confidence</title>
<path fill="none" stroke="#000000" d="M263.9065,-380.4006C263.9065,-368.2949 263.9065,-352.2076 263.9065,-338.4674"/>
<polygon fill="#000000" stroke="#000000" points="267.4066,-338.072 263.9065,-328.072 260.4066,-338.0721 267.4066,-338.072"/>
<text text-anchor="middle" x="273.2361" y="-350.2" font-family="Times,serif" font-size="14.00" fill="#000000">yes</text>
</g>
<!-- release_cam -->
<g id="node14" class="node">
<title>release_cam</title>
<path fill="none" stroke="#000000" d="M344.3275,-255C344.3275,-255 183.4855,-255 183.4855,-255 177.4855,-255 171.4855,-249 171.4855,-243 171.4855,-243 171.4855,-231 171.4855,-231 171.4855,-225 177.4855,-219 183.4855,-219 183.4855,-219 344.3275,-219 344.3275,-219 350.3275,-219 356.3275,-225 356.3275,-231 356.3275,-231 356.3275,-243 356.3275,-243 356.3275,-249 350.3275,-255 344.3275,-255"/>
<text text-anchor="middle" x="263.9065" y="-234" font-family="Helvetica,sans-Serif" font-size="10.00" fill="#000000">Release camera and destroy windows</text>
</g>
<!-- set_id_confidence&#45;&gt;release_cam -->
<g id="edge14" class="edge">
<title>set_id_confidence-&gt;release_cam</title>
<path fill="none" stroke="#000000" d="M263.9065,-291.9551C263.9065,-283.8828 263.9065,-274.1764 263.9065,-265.1817"/>
<polygon fill="#000000" stroke="#000000" points="267.4066,-265.0903 263.9065,-255.0904 260.4066,-265.0904 267.4066,-265.0903"/>
</g>
<!-- finish -->
<g id="node15" class="node">
<title>finish</title>
<path fill="none" stroke="#000000" d="M296.8145,-182C296.8145,-182 230.9985,-182 230.9985,-182 224.9985,-182 218.9985,-176 218.9985,-170 218.9985,-170 218.9985,-158 218.9985,-158 218.9985,-152 224.9985,-146 230.9985,-146 230.9985,-146 296.8145,-146 296.8145,-146 302.8145,-146 308.8145,-152 308.8145,-158 308.8145,-158 308.8145,-170 308.8145,-170 308.8145,-176 302.8145,-182 296.8145,-182"/>
<text text-anchor="middle" x="263.9065" y="-161" font-family="Helvetica,sans-Serif" font-size="10.00" fill="#000000">Face recognized</text>
</g>
<!-- release_cam&#45;&gt;finish -->
<g id="edge15" class="edge">
<title>release_cam-&gt;finish</title>
<path fill="none" stroke="#000000" d="M263.9065,-218.9551C263.9065,-210.8828 263.9065,-201.1764 263.9065,-192.1817"/>
<polygon fill="#000000" stroke="#000000" points="267.4066,-192.0903 263.9065,-182.0904 260.4066,-192.0904 267.4066,-192.0903"/>
</g>
</g>
</svg>